HIERARCHY
ROOT Hips
{
  OFFSET -24.208 24.585 -245.778
  CHANNELS 6 Xposition Yposition Zposition Zrotation Xrotation Yrotation
  JOINT LeftUpLeg
  {
    OFFSET 6.145 -5.701 1.939
    CHANNELS 6 Xposition Yposition Zposition Zrotation Xrotation Yrotation
    JOINT LeftLeg
    {
      OFFSET -0.000 -50.473 0.000
      CHANNELS 6 Xposition Yposition Zposition Zrotation Xrotation Yrotation
      JOINT LeftFoot
      {
        OFFSET 0.000 -38.258 -0.000
        CHANNELS 6 Xposition Yposition Zposition Zrotation Xrotation Yrotation
        End Site
        {
          OFFSET 0.000 -7.482 4.320
        }
      }
    }
  }
  JOINT RightUpLeg
  {
    OFFSET -6.305 -5.940 2.540
    CHANNELS 6 Xposition Yposition Zposition Zrotation Xrotation Yrotation
    JOINT RightLeg
    {
      OFFSET -0.000 -49.868 0.000
      CHANNELS 6 Xposition Yposition Zposition Zrotation Xrotation Yrotation
      JOINT RightFoot
      {
        OFFSET 0.000 -38.120 -0.000
        CHANNELS 6 Xposition Yposition Zposition Zrotation Xrotation Yrotation
        End Site
        {
          OFFSET 0.000 -7.866 4.542
        }
      }
    }
  }
  JOINT Spine
  {
    OFFSET 0.000 6.031 -6.031
    CHANNELS 6 Xposition Yposition Zposition Zrotation Xrotation Yrotation
    JOINT LeftShoulder
    {
      OFFSET -0.000 42.702 0.000
      CHANNELS 6 Xposition Yposition Zposition Zrotation Xrotation Yrotation
      JOINT LeftArm
      {
        OFFSET 19.782 0.000 -0.000
        CHANNELS 6 Xposition Yposition Zposition Zrotation Xrotation Yrotation
        JOINT LeftForeArm
        {
          OFFSET 21.247 0.000 0.000
          CHANNELS 6 Xposition Yposition Zposition Zrotation Xrotation Yrotation
          JOINT LeftHand
          {
            OFFSET 23.412 -0.000 -0.000
            CHANNELS 6 Xposition Yposition Zposition Zrotation Xrotation Yrotation
            JOINT LeftHandThumb1
            {
            OFFSET 4.970 -0.620 3.390
            CHANNELS 6 Xposition Yposition Zposition Zrotation Xrotation Yrotation
              JOINT LeftHandThumb2
              {
              OFFSET 2.150 -0.000 0.000
              CHANNELS 6 Xposition Yposition Zposition Zrotation Xrotation Yrotation
                JOINT LeftHandThumb3
                {
                OFFSET 2.200 -0.000 0.000
                CHANNELS 6 Xposition Yposition Zposition Zrotation Xrotation Yrotation
                  JOINT LeftHandThumb4
                  {
                  OFFSET 1.700 -0.000 0.000
                  CHANNELS 6 Xposition Yposition Zposition Zrotation Xrotation Yrotation
                  }
                }
              }
            }
            JOINT LeftHandIndex1
            {
            OFFSET 8.730 0.680 2.070
            CHANNELS 6 Xposition Yposition Zposition Zrotation Xrotation Yrotation
              JOINT LeftHandIndex2
              {
              OFFSET 2.670 -0.000 0.000
              CHANNELS 6 Xposition Yposition Zposition Zrotation Xrotation Yrotation
                JOINT LeftHandIndex3
                {
                OFFSET 2.130 -0.000 0.000
                CHANNELS 6 Xposition Yposition Zposition Zrotation Xrotation Yrotation
                  JOINT LeftHandIndex4
                  {
                  OFFSET 1.800 -0.000 0.000
                  CHANNELS 6 Xposition Yposition Zposition Zrotation Xrotation Yrotation
                  }
                }
              }
            }
            JOINT LeftHandMiddle1
            {
            OFFSET 9.220 0.670 0.550
            CHANNELS 6 Xposition Yposition Zposition Zrotation Xrotation Yrotation
              JOINT LeftHandMiddle2
              {
              OFFSET 2.660 -0.000 0.000
              CHANNELS 6 Xposition Yposition Zposition Zrotation Xrotation Yrotation
                JOINT LeftHandMiddle3
                {
                OFFSET 2.280 -0.000 0.000
                CHANNELS 6 Xposition Yposition Zposition Zrotation Xrotation Yrotation
                  JOINT LeftHandMiddle4
                  {
                  OFFSET 1.500 -0.000 0.000
                  CHANNELS 6 Xposition Yposition Zposition Zrotation Xrotation Yrotation
                  }
                }
              }
            }
            JOINT LeftHandRing1
            {
            OFFSET 9.250 0.670 -1.130
            CHANNELS 6 Xposition Yposition Zposition Zrotation Xrotation Yrotation
              JOINT LeftHandRing2
              {
              OFFSET 2.470 -0.000 0.000
              CHANNELS 6 Xposition Yposition Zposition Zrotation Xrotation Yrotation
                JOINT LeftHandRing3
                {
                OFFSET 2.210 -0.000 0.000
                CHANNELS 6 Xposition Yposition Zposition Zrotation Xrotation Yrotation
                  JOINT LeftHandRing4
                  {
                  OFFSET 1.800 -0.000 0.000
                  CHANNELS 6 Xposition Yposition Zposition Zrotation Xrotation Yrotation
                  }
                }
              }
            }
            JOINT LeftHandPinky1
            {
            OFFSET 9.350 0.660 -2.720
            CHANNELS 6 Xposition Yposition Zposition Zrotation Xrotation Yrotation
              JOINT LeftHandPinky2
              {
              OFFSET 1.630 -0.000 0.000
              CHANNELS 6 Xposition Yposition Zposition Zrotation Xrotation Yrotation
                JOINT LeftHandPinky3
                {
                OFFSET 1.710 -0.000 0.000
                CHANNELS 6 Xposition Yposition Zposition Zrotation Xrotation Yrotation
                  JOINT LeftHandPinky4
                  {
                  OFFSET 1.800 -0.000 0.000
                  CHANNELS 6 Xposition Yposition Zposition Zrotation Xrotation Yrotation
                  }
                }
              }
            }
          }
        }
      }
    }
    JOINT RightShoulder
    {
      OFFSET -0.000 42.702 0.000
      CHANNELS 6 Xposition Yposition Zposition Zrotation Xrotation Yrotation
      JOINT RightArm
      {
        OFFSET -22.913 0.000 -0.000
        CHANNELS 6 Xposition Yposition Zposition Zrotation Xrotation Yrotation
        JOINT RightForeArm
        {
          OFFSET -21.313 0.000 0.000
          CHANNELS 6 Xposition Yposition Zposition Zrotation Xrotation Yrotation
          JOINT RightHand
          {
            OFFSET -23.276 0.000 -0.000
            CHANNELS 6 Xposition Yposition Zposition Zrotation Xrotation Yrotation
            JOINT RightHandThumb1
            {
            OFFSET -4.970 -0.620 3.390
            CHANNELS 6 Xposition Yposition Zposition Zrotation Xrotation Yrotation
              JOINT RightHandThumb2
              {
              OFFSET -2.150 0.000 0.000
              CHANNELS 6 Xposition Yposition Zposition Zrotation Xrotation Yrotation
                JOINT RightHandThumb3
                {
                OFFSET -2.200 0.000 0.000
                CHANNELS 6 Xposition Yposition Zposition Zrotation Xrotation Yrotation
                  JOINT RightHandThumb4
                  {
                  OFFSET -1.700 0.000 0.000
                  CHANNELS 6 Xposition Yposition Zposition Zrotation Xrotation Yrotation
                  }
                }
              }
            }
            JOINT RightHandIndex1
            {
            OFFSET -8.730 0.680 2.070
            CHANNELS 6 Xposition Yposition Zposition Zrotation Xrotation Yrotation
              JOINT RightHandIndex2
              {
              OFFSET -2.670 0.000 0.000
              CHANNELS 6 Xposition Yposition Zposition Zrotation Xrotation Yrotation
                JOINT RightHandIndex3
                {
                OFFSET -2.130 0.000 0.000
                CHANNELS 6 Xposition Yposition Zposition Zrotation Xrotation Yrotation
                  JOINT RightHandIndex4
                  {
                  OFFSET -1.800 0.000 0.000
                  CHANNELS 6 Xposition Yposition Zposition Zrotation Xrotation Yrotation
                  }
                }
              }
            }
            JOINT RightHandMiddle1
            {
            OFFSET -9.220 0.670 0.550
            CHANNELS 6 Xposition Yposition Zposition Zrotation Xrotation Yrotation
              JOINT RightHandMiddle2
              {
              OFFSET -2.660 0.000 0.000
              CHANNELS 6 Xposition Yposition Zposition Zrotation Xrotation Yrotation
                JOINT RightHandMiddle3
                {
                OFFSET -2.280 0.000 0.000
                CHANNELS 6 Xposition Yposition Zposition Zrotation Xrotation Yrotation
                  JOINT RightHandMiddle4
                  {
                  OFFSET -1.500 0.000 0.000
                  CHANNELS 6 Xposition Yposition Zposition Zrotation Xrotation Yrotation
                  }
                }
              }
            }
            JOINT RightHandRing1
            {
            OFFSET -9.250 0.670 -1.130
            CHANNELS 6 Xposition Yposition Zposition Zrotation Xrotation Yrotation
              JOINT RightHandRing2
              {
              OFFSET -2.470 0.000 0.000
              CHANNELS 6 Xposition Yposition Zposition Zrotation Xrotation Yrotation
                JOINT RightHandRing3
                {
                OFFSET -2.210 0.000 0.000
                CHANNELS 6 Xposition Yposition Zposition Zrotation Xrotation Yrotation
                  JOINT RightHandRing4
                  {
                  OFFSET -1.800 0.000 0.000
                  CHANNELS 6 Xposition Yposition Zposition Zrotation Xrotation Yrotation
                  }
                }
              }
            }
            JOINT RightHandPinky1
            {
            OFFSET -9.350 0.660 -2.720
            CHANNELS 6 Xposition Yposition Zposition Zrotation Xrotation Yrotation
              JOINT RightHandPinky2
              {
              OFFSET -1.630 0.000 0.000
              CHANNELS 6 Xposition Yposition Zposition Zrotation Xrotation Yrotation
                JOINT RightHandPinky3
                {
                OFFSET -1.710 0.000 0.000
                CHANNELS 6 Xposition Yposition Zposition Zrotation Xrotation Yrotation
                  JOINT RightHandPinky4
                  {
                  OFFSET -1.800 0.000 0.000
                  CHANNELS 6 Xposition Yposition Zposition Zrotation Xrotation Yrotation
                  }
                }
              }
            }
          }
        }
      }
    }
    JOINT Neck
    {
      OFFSET -0.000 42.702 0.000
      CHANNELS 6 Xposition Yposition Zposition Zrotation Xrotation Yrotation
      JOINT Head
      {
        OFFSET -0.000 13.283 -0.000
        CHANNELS 6 Xposition Yposition Zposition Zrotation Xrotation Yrotation
        End Site
        {
          OFFSET -0.000 0.053 -0.000
        }
      }
    }
  }
}
MOTION
Frames:	4
Frame Time:	0.0333333
-11.6495 20.7071 -259.338 -6.17103 32.1026 6.81652 6.06177 -3.90394 3.46053 0.137864 -40.4978 -7.16615 1.49012e-06 -46.1373 2.38419e-05 0.21994 11.9464 -0.0455272 1.49012e-06 -38.6822 -2.38419e-05 4.0119 -22.361 3.5952 -6.31906 -5.9382 3.12452 3.22201 -18.1797 -3.37538 1.49012e-06 -49.0925 7.15256e-05 9.63071 4.26216 -0.722537 0 -35.6188 0 19.582 -45.9952 21.2394 0 5.65947 -5.65946 -1.07337 -29.5739 3.28717 -8.9407e-06 42.7019 -2.38419e-05 -47.7541 1.66486e-05 -3.8444 15.4489 0 9.53674e-05 -24.8568 35.7927 38.1523 23.6009 2.38419e-05 0 7.10609e-05 -6.8302e-06 -85.8516 24.0463 -3.57628e-05 1.19209e-05 -1.01884 0.121872 16.5277 0.0062 0.0497 0.0339 0 0 0 0 0.0215 0 0 0 0 0 0.022 0 0 0 0 0 0.017 0 0 0 0 -0.0068 0.0873 0.0207 0 0 0 0 0.0267 0 0 0 0 0 0.0213 0 0 0 0 0 0.018 0 0 0 0 -0.0067 0.0922 0.0055 0 0 0 0 0.0266 0 0 0 0 0 0.0228 0 0 0 0 0 0.015 0 0 0 0 -0.0067 0.0925 -0.0113 0 0 0 0 0.0247 0 0 0 0 0 0.0221 0 0 0 0 0 0.018 0 0 0 0 -0.0066 0.0935 -0.0272 0 0 0 0 0.0163 0 0 0 0 0 0.0171 0 0 0 0 0 0.018 0 0 0 0 -8.9407e-06 42.7019 -2.38419e-05 49.0118 -1.70755e-06 2.4679 -24.0551 -1.63913e-05 -2.38419e-05 9.63062 0.367959 -3.71245 -18.2217 1.00583e-05 2.38419e-05 10.9046 -0.305092 178.417 -15.6954 5.02914e-06 2.38419e-05 32.7985 -7.61008 -26.7545 -0.0062 0.0497 0.0339 38.0911 0 0 0 0.0215 0 0 -38.0911 0 0 0.022 0 0 -38.0911 0 0 0.017 0 0 0 0 0.0068 0.0873 0.0207 38.0911 0 0 0 0.0267 0 67.7175 0 0 0 0.0213 0 76.1822 0 0 0 0.018 0 0 0 0 0.0067 0.0922 0.0055 38.0911 0 0 0 0.0266 0 67.7175 0 0 0 0.0228 0 76.1822 0 0 0 0.015 0 0 0 0 0.0067 0.0925 -0.0113 38.0911 0 0 0 0.0247 0 67.7175 0 0 0 0.0221 0 76.1822 0 0 0 0.018 0 0 0 0 0.0066 0.0935 -0.0272 38.0911 0 0 0 0.0163 0 67.7175 0 0 0 0.0171 0 76.1822 0 0 0 0.018 0 0 0 0 -8.9407e-06 42.7019 -2.38419e-05 16.4282 1.60815 -0.474084 -1.19209e-05 15.3925 2.38419e-05 1.19528e-05 -8.96462e-06 8.53773e-07 
-11.6495 20.7071 -259.338 -6.17103 32.1026 6.81652 6.06177 -3.90394 3.46053 0.137864 -40.4978 -7.16615 1.49012e-06 -46.1373 2.38419e-05 0.21994 11.9464 -0.0455272 1.49012e-06 -38.6822 -2.38419e-05 4.0119 -22.361 3.5952 -6.31906 -5.9382 3.12452 3.22201 -18.1797 -3.37538 1.49012e-06 -49.0925 7.15256e-05 9.63071 4.26216 -0.722537 0 -35.6188 0 19.582 -45.9952 21.2394 0 5.65947 -5.65946 -1.07337 -29.5739 3.28717 -8.9407e-06 42.7019 -2.38419e-05 -47.7541 1.66486e-05 -3.8444 15.4489 0 9.53674e-05 -24.8568 35.7927 38.1523 23.6009 2.38419e-05 0 7.10609e-05 -6.8302e-06 -85.8516 24.0463 -3.57628e-05 1.19209e-05 -1.01884 0.121872 16.5277 0.0062 0.0497 0.0339 0 0 0 0 0.0215 0 0 0 0 0 0.022 0 0 0 0 0 0.017 0 0 0 0 -0.0068 0.0873 0.0207 0 0 0 0 0.0267 0 0 0 0 0 0.0213 0 0 0 0 0 0.018 0 0 0 0 -0.0067 0.0922 0.0055 0 0 0 0 0.0266 0 0 0 0 0 0.0228 0 0 0 0 0 0.015 0 0 0 0 -0.0067 0.0925 -0.0113 0 0 0 0 0.0247 0 0 0 0 0 0.0221 0 0 0 0 0 0.018 0 0 0 0 -0.0066 0.0935 -0.0272 0 0 0 0 0.0163 0 0 0 0 0 0.0171 0 0 0 0 0 0.018 0 0 0 0 -8.9407e-06 42.7019 -2.38419e-05 49.0118 -1.70755e-06 2.4679 -24.0551 -1.63913e-05 -2.38419e-05 9.63062 0.367959 -3.71245 -18.2217 1.00583e-05 2.38419e-05 10.9046 -0.305092 178.417 -15.6954 5.02914e-06 2.38419e-05 32.7985 -7.61008 -26.7545 -0.0062 0.0497 0.0339 38.0911 0 0 0 0.0215 0 0 -38.0911 0 0 0.022 0 0 -38.0911 0 0 0.017 0 0 0 0 0.0068 0.0873 0.0207 38.0911 0 0 0 0.0267 0 67.7175 0 0 0 0.0213 0 76.1822 0 0 0 0.018 0 0 0 0 0.0067 0.0922 0.0055 38.0911 0 0 0 0.0266 0 67.7175 0 0 0 0.0228 0 76.1822 0 0 0 0.015 0 0 0 0 0.0067 0.0925 -0.0113 38.0911 0 0 0 0.0247 0 67.7175 0 0 0 0.0221 0 76.1822 0 0 0 0.018 0 0 0 0 0.0066 0.0935 -0.0272 38.0911 0 0 0 0.0163 0 67.7175 0 0 0 0.0171 0 76.1822 0 0 0 0.018 0 0 0 0 -8.9407e-06 42.7019 -2.38419e-05 16.4282 1.60815 -0.474084 -1.19209e-05 15.3925 2.38419e-05 1.19528e-05 -8.96462e-06 8.53773e-07 
-11.8997 20.7103 -259.757 -5.76307 32.6678 5.87786 6.17871 -3.91291 3.51346 1.02222 -43.0929 -4.97544 -7.45058e-07 -45.4714 4.76837e-05 -0.679062 15.3019 -5.53221e-08 7.45058e-07 -39.2079 0 4.75514 -25.8712 4.43145 -6.41855 -5.99581 3.24714 3.53451 -18.3035 -2.98276 -1.49012e-06 -49.1149 7.15256e-05 9.38406 3.42175 -0.565136 2.98023e-06 -35.3576 -2.38419e-05 19.6963 -46.9835 21.575 1.49012e-06 5.67811 -5.67806 -0.934357 -30.0927 3.40203 -2.98023e-06 42.7019 0 -47.4874 1.10991e-05 -3.21284 15.5153 0 0 -23.7151 35.4632 36.3557 23.1915 0 4.76837e-05 -0.000156667 -5.12264e-06 -86.8788 23.709 3.57628e-05 -1.19209e-05 -1.30518 0.114321 18.7308 0.0062 0.0497 0.0339 0 0 0 0 0.0215 0 0 0 0 0 0.022 0 0 0 0 0 0.017 0 0 0 0 -0.0068 0.0873 0.0207 0 0 0 0 0.0267 0 0 0 0 0 0.0213 0 0 0 0 0 0.018 0 0 0 0 -0.0067 0.0922 0.0055 0 0 0 0 0.0266 0 0 0 0 0 0.0228 0 0 0 0 0 0.015 0 0 0 0 -0.0067 0.0925 -0.0113 0 0 0 0 0.0247 0 0 0 0 0 0.0221 0 0 0 0 0 0.018 0 0 0 0 -0.0066 0.0935 -0.0272 0 0 0 0 0.0163 0 0 0 0 0 0.0171 0 0 0 0 0 0.018 0 0 0 0 -2.98023e-06 42.7019 0 49.2304 -8.53774e-06 2.03986 -24.4292 1.63913e-05 -2.38419e-05 11.075 7.52742 0.968128 -18.4485 -5.96046e-06 4.76837e-05 -4.21762e-06 7.4289e-06 149.17 -15.8062 -2.98023e-06 0 5.84455 -1.87902 -29.8172 -0.0062 0.0497 0.0339 42.651 0 0 0 0.0215 0 0 -42.651 0 0 0.022 0 0 -42.651 0 0 0.017 0 0 0 0 0.0068 0.0873 0.0207 42.651 0 0 0 0.0267 0 75.8239 0 0 0 0.0213 0 85.3019 0 0 0 0.018 0 0 0 0 0.0067 0.0922 0.0055 42.651 0 0 0 0.0266 0 75.8239 0 0 0 0.0228 0 85.3019 0 0 0 0.015 0 0 0 0 0.0067 0.0925 -0.0113 42.651 0 0 0 0.0247 0 75.8239 0 0 0 0.0221 0 85.3019 0 0 0 0.018 0 0 0 0 0.0066 0.0935 -0.0272 42.651 0 0 0 0.0163 0 75.8239 0 0 0 0.0171 0 85.3019 0 0 0 0.018 0 0 0 0 -2.98023e-06 42.7019 0 15.8371 2.02397 -0.574001 2.98023e-06 15.3194 7.15256e-05 6.45666e-06 -9.39151e-06 0 
-12.0304 21.4631 -259.827 -6.02538 32.0356 6.53011 6.11461 -4.07361 3.48091 1.5712 -43.8042 -3.64567 8.3819e-07 -45.6772 0 -1.221 17.8187 -3.36297e-07 2.04891e-06 -39.5859 -4.76837e-05 5.32826 -29.0332 5.114 -6.32631 -5.88815 3.26455 3.73832 -17.2691 -2.29996 -2.98023e-06 -50.0868 4.76837e-05 9.32339 2.26329 -0.371476 0 -35.2744 0 19.3344 -47.6917 21.3552 -8.9407e-06 5.5303 -5.53029 -0.897174 -29.691 3.2342 5.96046e-06 42.7019 0 -47.7911 1.4941e-05 -2.93347 15.9312 1.78814e-05 2.38419e-05 -22.2075 35.9397 34.2907 22.8095 0 -2.38419e-05 -8.42423e-05 0 -87.6767 23.3178 0 -1.19209e-05 -2.03966 0.116417 22.4616 0.0062 0.0497 0.0339 0 0 0 0 0.0215 0 0 0 0 0 0.022 0 0 0 0 0 0.017 0 0 0 0 -0.0068 0.0873 0.0207 0 0 0 0 0.0267 0 0 0 0 0 0.0213 0 0 0 0 0 0.018 0 0 0 0 -0.0067 0.0922 0.0055 0 0 0 0 0.0266 0 0 0 0 0 0.0228 0 0 0 0 0 0.015 0 0 0 0 -0.0067 0.0925 -0.0113 0 0 0 0 0.0247 0 0 0 0 0 0.0221 0 0 0 0 0 0.018 0 0 0 0 -0.0066 0.0935 -0.0272 0 0 0 0 0.0163 0 0 0 0 0 0.0171 0 0 0 0 0 0.018 0 0 0 0 5.96046e-06 42.7019 0 49.3774 -4.26887e-06 1.93279 -24.1732 4.47035e-06 0 12.5249 16.0252 1.34645 -18.701 1.78814e-05 -2.38419e-05 -2.95516e-05 5.79855e-06 132.086 -16.2278 1.19209e-05 -2.38419e-05 -0.219501 -0.326774 -25.6067 -0.0062 0.0497 0.0339 45 0 0 0 0.0215 0 0 -45 0 0 0.022 0 0 -45 0 0 0.017 0 0 0 0 0.0068 0.0873 0.0207 45 0 0 0 0.0267 0 80 0 0 0 0.0213 0 90 0 0 0 0.018 0 0 0 0 0.0067 0.0922 0.0055 45 0 0 0 0.0266 0 80 0 0 0 0.0228 0 90 0 0 0 0.015 0 0 0 0 0.0067 0.0925 -0.0113 45 0 0 0 0.0247 0 80 0 0 0 0.0221 0 90 0 0 0 0.018 0 0 0 0 0.0066 0.0935 -0.0272 45 0 0 0 0.0163 0 80 0 0 0 0.0171 0 90 0 0 0 0.018 0 0 0 0 5.96046e-06 42.7019 0 15.8346 2.40197 -0.681023 -2.98023e-06 14.8445 -4.76837e-05 1.25932e-05 -1.10991e-05 0 
